<svg width="32" height="32" viewBox="0 0 32 32" fill="none" xmlns="http://www.w3.org/2000/svg">
<path d="M5.8 27.2C5.4 27.2 5.1 27.1 4.8 26.9C4.5 26.7 4.3 26.4 4.1 26.1C4 25.8 4 25.4 4 25.1C4.1 24.8 4.2 24.4 4.5 24.2L8.1 20.6L8 20.3C6.9 18.6 6.5 16.5 6.7 14.5C6.9 12.5 7.9 10.6 9.3 9.1C13.9 4.5 22.5 4 25.9 4C26.6 4 27 4 27 4H27.1V4.1C27.1 4.6 27.6 16.3 21.9 21.9C20.5 23.3 18.6 24.2 16.6 24.5C16.3 24.5 15.9 24.6 15.6 24.6C13.9 24.6 12.3 24.1 10.9 23.3L10.6 23.1L7 26.7C6.8 26.9 6.6 27 6.4 27.1C6.2 27.2 6 27.2 5.8 27.2ZM16.4 13C16.6 13 16.9 13 17.1 13.1C17.3 13.2 17.5 13.3 17.7 13.5C17.9 13.7 18 13.9 18.1 14.1C18.2 14.3 18.2 14.5 18.2 14.8C18.2 15 18.2 15.3 18.1 15.5C18 15.7 17.9 15.9 17.7 16.1L13.2 20.6L13.8 20.8C14.4 21 15 21.1 15.7 21.1C16.1 21.1 16.5 21.1 16.9 21C17.9 20.8 18.8 20.3 19.6 19.5C21.8 16.9 23 13.7 23.3 10.4C23.4 9.7 23.5 8.9 23.6 8.2V7.7H23.1C21.7 7.8 20.3 8 18.9 8.3C16.3 8.7 13.8 9.9 11.8 11.6C11 12.3 10.5 13.3 10.3 14.3C10.1 15.3 10.1 16.4 10.5 17.4L10.7 18L15.2 13.5C15.4 13.3 15.6 13.2 15.8 13.1C16 13 16.2 13 16.4 13Z" fill="black"/>
</svg>
