<svg width="32" height="32" viewBox="0 0 32 32" fill="none" xmlns="http://www.w3.org/2000/svg">
<path d="M28.0545 5.93015C27.4531 5.33824 26.594 5 25.8208 5C24.1026 5 22.6421 6.4375 22.6421 8.12868C22.6421 9.39706 23.5012 10.5809 24.704 11.0037V15.3162H17.7452V11.0037C19.2916 10.4118 20.1507 8.80515 19.6353 7.19853C19.1198 5.93015 17.8311 5 16.4566 5C16.1129 5 15.8552 5.08456 15.5115 5.16912C14.7384 5.42279 14.0511 5.93015 13.6215 6.69118C13.192 7.45221 13.106 8.29779 13.3638 9.05882C13.6215 9.98897 14.3088 10.75 15.2538 11.0882V15.4007H8.29505V11.0037C8.98234 10.75 9.58371 10.2426 9.92736 9.56618C10.3569 8.80515 10.4428 7.95956 10.1851 7.19853C9.84144 5.93015 8.55278 5 7.17821 5C6.83457 5 6.57684 5.08456 6.2332 5.16912C5.46 5.33824 4.77272 5.93015 4.34316 6.60662C3.99952 7.36765 3.91361 8.21324 4.17134 9.05882C4.42907 9.98897 5.11636 10.75 6.06138 11.0882V21.9118C5.37409 22.1654 4.77272 22.6728 4.42907 23.3493C3.99952 24.1103 3.91361 24.9559 4.17134 25.7169C4.60089 27.0699 5.80364 27.9154 7.17821 27.9154C7.52186 27.9154 7.77959 27.8309 8.12323 27.7463C8.89643 27.4926 9.58371 26.9853 10.0133 26.2243C10.4428 25.4632 10.5287 24.6176 10.271 23.8566C10.0133 22.9265 9.32598 22.1654 8.38096 21.8272V17.5147H15.3397V21.9118C14.6524 22.1654 14.0511 22.6728 13.7074 23.3493C13.2779 24.1103 13.192 24.9559 13.4497 25.7169C13.8792 27.0699 15.082 27.9154 16.4566 27.9154C16.8002 27.9154 17.0579 27.8309 17.4016 27.7463C18.1748 27.4926 18.8621 26.9853 19.2916 26.2243C19.7212 25.4632 19.8071 24.6176 19.5493 23.8566C19.2916 22.9265 18.6043 22.1654 17.6593 21.8272V17.5147H25.8208C26.4222 17.5147 26.9377 17.0074 26.9377 16.4154V11.0037C28.1404 10.5809 28.9995 9.39706 28.9995 8.12868C28.9995 7.28309 28.6559 6.52206 28.0545 5.93015Z" fill="black"/>
</svg>
